adventprofmm_reg_krn.ufo
<glyph name="quotesingle" format="1">
  <advance width="125"/>
  <unicode hex="0027"/>
  <outline>
    <contour>
      <point x="28" y="702" type="curve"/>
      <point x="41" y="587" type="line"/>
      <point x="81" y="587" type="line"/>
      <point x="95" y="702" type="line"/>
      <point x="95" y="748"/>
      <point x="28" y="748"/>
    </contour>
  </outline>
</glyph>
<glyph name="two" format="1">
  <advance width="412"/>
  <unicode hex="0032"/>
  <outline>
    <contour>
      <point x="42" y="588" type="curve"/>
      <point x="94" y="569" type="line"/>
      <point x="116" y="628"/>
      <point x="161" y="654"/>
      <point x="206" y="654" type="curve" smooth="yes"/>
      <point x="263" y="656"/>
      <point x="318" y="612"/>
      <point x="318" y="539" type="curve" smooth="yes"/>
      <point x="318" y="508"/>
      <point x="312" y="486"/>
      <point x="274" y="425" type="curve" smooth="yes"/>
      <point x="196" y="295"/>
      <point x="109" y="176"/>
      <point x="29" y="53" type="curve"/>
      <point x="29" y="0" type="line"/>
      <point x="378" y="0" type="line"/>
      <point x="378" y="53" type="line"/>
      <point x="94" y="53" type="line"/>
      <point x="170" y="166"/>
      <point x="246" y="280"/>
      <point x="322" y="394" type="curve"/>
      <point x="363" y="464"/>
      <point x="377" y="509"/>
      <point x="377" y="549" type="curve" smooth="yes"/>
      <point x="378" y="650"/>
      <point x="293" y="710"/>
      <point x="207" y="708" type="curve" smooth="yes"/>
      <point x="140" y="707"/>
      <point x="73" y="670"/>
    </contour>
  </outline>
</glyph>
<glyph name="S" format="1">
  <advance width="528"/>
  <unicode hex="0053"/>
  <outline>
    <contour>
      <point x="419" y="618" type="curve"/>
      <point x="436" y="670" type="line"/>
      <point x="390" y="695"/>
      <point x="331" y="708"/>
      <point x="273" y="707" type="curve" smooth="yes"/>
      <point x="218" y="707"/>
      <point x="164" y="693"/>
      <point x="125" y="664" type="curve"/>
      <point x="87" y="639"/>
      <point x="63" y="599"/>
      <point x="60" y="547" type="curve" smooth="yes"/>
      <point x="56" y="448"/>
      <point x="129" y="402"/>
      <point x="213" y="365" type="curve" smooth="yes"/>
      <point x="246" y="351"/>
      <point x="280" y="339"/>
      <point x="312" y="324" type="curve" smooth="yes"/>
      <point x="383" y="293"/>
      <point x="442" y="254"/>
      <point x="438" y="177" type="curve" smooth="yes"/>
      <point x="436" y="140"/>
      <point x="423" y="112"/>
      <point x="402" y="91" type="curve" smooth="yes"/>
      <point x="368" y="56"/>
      <point x="313" y="42"/>
      <point x="258" y="42" type="curve" smooth="yes"/>
      <point x="202" y="42"/>
      <point x="158" y="62"/>
      <point x="129" y="84" type="curve" smooth="yes"/>
      <point x="82" y="120"/>
      <point x="71" y="159"/>
      <point x="71" y="159" type="curve"/>
      <point x="26" y="132" type="line"/>
      <point x="26" y="132"/>
      <point x="44" y="77"/>
      <point x="102" y="35" type="curve" smooth="yes"/>
      <point x="138" y="9"/>
      <point x="190" y="-12"/>
      <point x="262" y="-12" type="curve" smooth="yes"/>
      <point x="326" y="-12"/>
      <point x="391" y="3"/>
      <point x="436" y="43" type="curve" smooth="yes"/>
      <point x="473" y="73"/>
      <point x="496" y="118"/>
      <point x="498" y="179" type="curve" smooth="yes"/>
      <point x="502" y="282"/>
      <point x="425" y="333"/>
      <point x="338" y="373" type="curve" smooth="yes"/>
      <point x="303" y="389"/>
      <point x="267" y="403"/>
      <point x="233" y="417" type="curve" smooth="yes"/>
      <point x="167" y="447"/>
      <point x="115" y="480"/>
      <point x="118" y="541" type="curve" smooth="yes"/>
      <point x="119" y="579"/>
      <point x="138" y="606"/>
      <point x="164" y="625" type="curve" smooth="yes"/>
      <point x="193" y="645"/>
      <point x="233" y="653"/>
      <point x="274" y="653" type="curve" smooth="yes"/>
      <point x="324" y="654"/>
      <point x="377" y="641"/>
    </contour>
  </outline>
</glyph>
<glyph name="bracketleft" format="1">
  <advance width="222"/>
  <unicode hex="005B"/>
  <outline>
    <contour>
      <point x="98" y="760" type="line"/>
      <point x="203" y="770" type="line"/>
      <point x="203" y="815" type="line"/>
      <point x="42" y="815" type="line"/>
      <point x="42" y="-113" type="line"/>
      <point x="203" y="-113" type="line"/>
      <point x="203" y="-69" type="line"/>
      <point x="98" y="-59" type="line"/>
    </contour>
  </outline>
</glyph>
<glyph name="dieresis" format="1">
  <advance width="380"/>
  <unicode hex="00A8"/>
  <outline>
    <contour>
      <point x="30" y="740" type="curve" smooth="yes"/>
      <point x="12" y="740"/>
      <point x="-3" y="725"/>
      <point x="-3" y="706" type="curve" smooth="yes"/>
      <point x="-3" y="687"/>
      <point x="12" y="673"/>
      <point x="30" y="673" type="curve" smooth="yes"/>
      <point x="48" y="673"/>
      <point x="64" y="687"/>
      <point x="64" y="706" type="curve" smooth="yes"/>
      <point x="64" y="725"/>
      <point x="48" y="740"/>
    </contour>
    <contour>
      <point x="188" y="740" type="curve" smooth="yes"/>
      <point x="169" y="740"/>
      <point x="155" y="725"/>
      <point x="155" y="706" type="curve" smooth="yes"/>
      <point x="155" y="687"/>
      <point x="169" y="673"/>
      <point x="188" y="673" type="curve" smooth="yes"/>
      <point x="207" y="673"/>
      <point x="221" y="687"/>
      <point x="221" y="706" type="curve" smooth="yes"/>
      <point x="221" y="725"/>
      <point x="207" y="740"/>
    </contour>
  </outline>
</glyph>
<glyph name="Ntilde" format="1">
  <advance width="574"/>
  <unicode hex="00D1"/>
  <outline>
    <contour>
      <point x="532" y="698" type="line"/>
      <point x="475" y="698" type="line"/>
      <point x="475" y="102" type="line"/>
      <point x="97" y="698" type="line"/>
      <point x="41" y="698" type="line"/>
      <point x="41" y="0" type="line"/>
      <point x="97" y="0" type="line"/>
      <point x="97" y="595" type="line"/>
      <point x="475" y="0" type="line"/>
      <point x="532" y="0" type="line"/>
    </contour>
    <contour>
      <point x="416" y="782" type="curve"/>
      <point x="395" y="829" type="line"/>
      <point x="382" y="818"/>
      <point x="362" y="810"/>
      <point x="343" y="810" type="curve" smooth="yes"/>
      <point x="329" y="810"/>
      <point x="283" y="835"/>
      <point x="235" y="835" type="curve" smooth="yes"/>
      <point x="208" y="835"/>
      <point x="179" y="828"/>
      <point x="156" y="803" type="curve"/>
      <point x="179" y="757" type="line"/>
      <point x="194" y="769"/>
      <point x="205" y="776"/>
      <point x="225" y="777" type="curve" smooth="yes"/>
      <point x="255" y="779"/>
      <point x="299" y="752"/>
      <point x="344" y="752" type="curve" smooth="yes"/>
      <point x="369" y="752"/>
      <point x="393" y="760"/>
    </contour>
  </outline>
</glyph>
<glyph name="oacute" format="1">
  <advance width="426"/>
  <unicode hex="00F3"/>
  <outline>
    <contour>
      <point x="396" y="184" type="curve" smooth="yes"/>
      <point x="396" y="315" type="line" smooth="yes"/>
      <point x="396" y="436"/>
      <point x="332" y="510"/>
      <point x="213" y="510" type="curve" smooth="yes"/>
      <point x="94" y="510"/>
      <point x="27" y="442"/>
      <point x="27" y="315" type="curve" smooth="yes"/>
      <point x="27" y="184" type="line" smooth="yes"/>
      <point x="27" y="75"/>
      <point x="91" y="-10"/>
      <point x="215" y="-10" type="curve" smooth="yes"/>
      <point x="338" y="-10"/>
      <point x="396" y="71"/>
    </contour>
    <contour>
      <point x="339" y="315" type="curve" smooth="yes"/>
      <point x="339" y="174" type="line" smooth="yes"/>
      <point x="339" y="92"/>
      <point x="298" y="40"/>
      <point x="215" y="40" type="curve" smooth="yes"/>
      <point x="134" y="40"/>
      <point x="83" y="94"/>
      <point x="83" y="174" type="curve" smooth="yes"/>
      <point x="83" y="315" type="line" smooth="yes"/>
      <point x="83" y="411"/>
      <point x="127" y="460"/>
      <point x="215" y="460" type="curve" smooth="yes"/>
      <point x="301" y="460"/>
      <point x="339" y="411"/>
    </contour>
    <contour>
      <point x="232" y="654" type="curve"/>
      <point x="193" y="548" type="line"/>
      <point x="229" y="548" type="line"/>
      <point x="282" y="627" type="line"/>
      <point x="294" y="641"/>
      <point x="293" y="664"/>
      <point x="276" y="674" type="curve" smooth="yes"/>
      <point x="258" y="684"/>
      <point x="237" y="673"/>
    </contour>
  </outline>
</glyph>
<glyph name="Amacron" format="1">
  <advance width="545"/>
  <unicode hex="0100"/>
  <outline>
    <contour>
      <point x="525" y="0" type="line"/>
      <point x="298" y="698" type="line"/>
      <point x="245" y="698" type="line"/>
      <point x="21" y="0" type="line"/>
      <point x="81" y="0" type="line"/>
      <point x="159" y="244" type="line"/>
      <point x="386" y="244" type="line"/>
      <point x="466" y="0" type="line"/>
    </contour>
    <contour>
      <point x="174" y="299" type="line"/>
      <point x="271" y="612" type="line"/>
      <point x="371" y="299" type="line"/>
    </contour>
    <contour>
      <point x="161" y="741" type="line"/>
      <point x="381" y="741" type="line"/>
      <point x="381" y="799" type="line"/>
      <point x="161" y="799" type="line"/>
    </contour>
  </outline>
</glyph>
<glyph name="ccaron" format="1">
  <advance width="383"/>
  <unicode hex="010D"/>
  <outline>
    <contour>
      <point x="333" y="430" type="curve"/>
      <point x="348" y="476" type="line"/>
      <point x="291" y="503"/>
      <point x="224" y="516"/>
      <point x="167" y="504" type="curve" smooth="yes"/>
      <point x="122" y="494"/>
      <point x="83" y="470"/>
      <point x="58" y="426" type="curve" smooth="yes"/>
      <point x="38" y="394"/>
      <point x="31" y="362"/>
      <point x="29" y="318" type="curve"/>
      <point x="29" y="173" type="line" smooth="yes"/>
      <point x="29" y="75"/>
      <point x="73" y="23"/>
      <point x="141" y="1" type="curve" smooth="yes"/>
      <point x="201" y="-18"/>
      <point x="283" y="-13"/>
      <point x="350" y="5" type="curve"/>
      <point x="339" y="55" type="line"/>
      <point x="339" y="55"/>
      <point x="217" y="26"/>
      <point x="153" y="52" type="curve" smooth="yes"/>
      <point x="101" y="71"/>
      <point x="84" y="119"/>
      <point x="84" y="185" type="curve" smooth="yes"/>
      <point x="84" y="305" type="line" smooth="yes"/>
      <point x="84" y="340"/>
      <point x="91" y="371"/>
      <point x="103" y="394" type="curve" smooth="yes"/>
      <point x="119" y="426"/>
      <point x="145" y="446"/>
      <point x="175" y="453" type="curve" smooth="yes"/>
      <point x="218" y="464"/>
      <point x="285" y="452"/>
    </contour>
    <contour>
      <point x="210" y="624" type="line"/>
      <point x="120" y="712" type="line"/>
      <point x="82" y="673" type="line"/>
      <point x="210" y="548" type="line"/>
      <point x="341" y="674" type="line"/>
      <point x="303" y="713" type="line"/>
    </contour>
  </outline>
</glyph>
<glyph name="dcaron" format="1">
  <advance width="542"/>
  <unicode hex="010F"/>
  <outline>
    <contour>
      <point x="413" y="0" type="curve"/>
      <point x="413" y="698" type="line"/>
      <point x="357" y="698" type="line"/>
      <point x="357" y="471" type="line"/>
      <point x="312" y="491"/>
      <point x="260" y="508"/>
      <point x="195" y="508" type="curve" smooth="yes"/>
      <point x="115" y="508"/>
      <point x="29" y="470"/>
      <point x="29" y="358" type="curve" smooth="yes"/>
      <point x="29" y="295"/>
      <point x="29" y="231"/>
      <point x="29" y="168" type="curve" smooth="yes"/>
      <point x="29" y="21"/>
      <point x="127" y="-14"/>
      <point x="256" y="-10" type="curve" smooth="yes"/>
      <point x="305" y="-9"/>
      <point x="413" y="0"/>
    </contour>
    <contour>
      <point x="357" y="422" type="curve"/>
      <point x="357" y="297"/>
      <point x="357" y="172"/>
      <point x="357" y="46" type="curve"/>
      <point x="357" y="46"/>
      <point x="316" y="42"/>
      <point x="252" y="38" type="curve" smooth="yes"/>
      <point x="118" y="33"/>
      <point x="84" y="80"/>
      <point x="84" y="175" type="curve" smooth="yes"/>
      <point x="84" y="195"/>
      <point x="84" y="332"/>
      <point x="84" y="354" type="curve" smooth="yes"/>
      <point x="84" y="446"/>
      <point x="154" y="461"/>
      <point x="191" y="461" type="curve" smooth="yes"/>
      <point x="255" y="461"/>
      <point x="303" y="444"/>
    </contour>
    <contour>
      <point x="452" y="543" type="curve"/>
      <point x="469" y="531" type="line"/>
      <point x="489" y="549"/>
      <point x="522" y="588"/>
      <point x="522" y="651" type="curve" smooth="yes"/>
      <point x="522" y="671"/>
      <point x="507" y="684"/>
      <point x="488" y="684" type="curve" smooth="yes"/>
      <point x="470" y="684"/>
      <point x="455" y="670"/>
      <point x="455" y="651" type="curve" smooth="yes"/>
      <point x="455" y="635"/>
      <point x="467" y="621"/>
      <point x="482" y="618" type="curve"/>
      <point x="480" y="597"/>
      <point x="472" y="570"/>
    </contour>
  </outline>
</glyph>
<glyph name="Emacron" format="1">
  <advance width="405"/>
  <unicode hex="0112"/>
  <outline>
    <contour>
      <point x="41" y="0" type="line"/>
      <point x="372" y="0" type="line"/>
      <point x="372" y="50" type="line"/>
      <point x="97" y="50" type="line"/>
      <point x="97" y="356" type="line"/>
      <point x="269" y="356" type="line"/>
      <point x="287" y="411" type="line"/>
      <point x="97" y="411" type="line"/>
      <point x="97" y="646" type="line"/>
      <point x="374" y="646" type="line"/>
      <point x="374" y="698" type="line"/>
      <point x="41" y="698" type="line"/>
    </contour>
    <contour>
      <point x="98" y="744" type="line"/>
      <point x="318" y="744" type="line"/>
      <point x="318" y="801" type="line"/>
      <point x="98" y="801" type="line"/>
    </contour>
  </outline>
</glyph>
<glyph name="hcircumflex" format="1">
  <advance width="443"/>
  <unicode hex="0125"/>
  <outline>
    <contour>
      <point x="97" y="465" type="curve"/>
      <point x="97" y="698" type="line"/>
      <point x="41" y="698" type="line"/>
      <point x="41" y="0" type="line"/>
      <point x="97" y="0" type="line"/>
      <point x="97" y="424" type="line"/>
      <point x="138" y="447"/>
      <point x="179" y="458"/>
      <point x="225" y="458" type="curve" smooth="yes"/>
      <point x="288" y="458"/>
      <point x="354" y="432"/>
      <point x="354" y="342" type="curve" smooth="yes"/>
      <point x="354" y="0" type="line"/>
      <point x="409" y="0" type="line"/>
      <point x="409" y="345" type="line" smooth="yes"/>
      <point x="409" y="450"/>
      <point x="346" y="508"/>
      <point x="236" y="508" type="curve" smooth="yes"/>
      <point x="186" y="508"/>
      <point x="136" y="492"/>
    </contour>
    <contour>
      <point x="96" y="745" type="line"/>
      <point x="134" y="707" type="line"/>
      <point x="227" y="796" type="line"/>
      <point x="317" y="708" type="line"/>
      <point x="355" y="747" type="line"/>
      <point x="227" y="872" type="line"/>
    </contour>
  </outline>
</glyph>
<glyph name="Imacron" format="1">
  <advance width="249"/>
  <unicode hex="012A"/>
  <outline>
    <contour>
      <point x="30" y="649" type="line"/>
      <point x="97" y="647" type="line"/>
      <point x="97" y="0" type="line"/>
      <point x="153" y="0" type="line"/>
      <point x="153" y="698" type="line"/>
      <point x="30" y="698" type="line"/>
    </contour>
    <contour>
      <point x="15" y="740" type="line"/>
      <point x="235" y="740" type="line"/>
      <point x="235" y="799" type="line"/>
      <point x="15" y="799" type="line"/>
    </contour>
  </outline>
</glyph>
<glyph name="Idotaccent" format="1">
  <advance width="190"/>
  <unicode hex="0130"/>
  <outline>
    <contour>
      <point x="20" y="649" type="line"/>
      <point x="87" y="647" type="line"/>
      <point x="87" y="0" type="line"/>
      <point x="143" y="0" type="line"/>
      <point x="143" y="698" type="line"/>
      <point x="20" y="698" type="line"/>
    </contour>
    <contour>
      <point x="117" y="834" type="curve" smooth="yes"/>
      <point x="98" y="834"/>
      <point x="83" y="818"/>
      <point x="83" y="800" type="curve" smooth="yes"/>
      <point x="83" y="781"/>
      <point x="98" y="767"/>
      <point x="117" y="767" type="curve" smooth="yes"/>
      <point x="135" y="767"/>
      <point x="150" y="781"/>
      <point x="150" y="800" type="curve" smooth="yes"/>
      <point x="150" y="818"/>
      <point x="135" y="834"/>
    </contour>
  </outline>
</glyph>
<glyph name="ldot" format="1">
  <advance width="139"/>
  <unicode hex="0140"/>
  <outline>
    <contour>
      <point x="41" y="0" type="line"/>
      <point x="96" y="0" type="line"/>
      <point x="96" y="698" type="line"/>
      <point x="41" y="698" type="line"/>
    </contour>
  </outline>
</glyph>
<glyph name="Racute" format="1">
  <advance width="508"/>
  <unicode hex="0154"/>
  <outline>
    <contour>
      <point x="247" y="849" type="curve" smooth="yes"/>
      <point x="209" y="743" type="line"/>
      <point x="244" y="743" type="line"/>
      <point x="297" y="822" type="line"/>
      <point x="310" y="836"/>
      <point x="308" y="859"/>
      <point x="291" y="869" type="curve" smooth="yes"/>
      <point x="273" y="879"/>
      <point x="253" y="868"/>
    </contour>
    <contour>
      <point x="276" y="698" type="curve" smooth="yes"/>
      <point x="41" y="698" type="line"/>
      <point x="41" y="0" type="line"/>
      <point x="97" y="0" type="line"/>
      <point x="97" y="244" type="line"/>
      <point x="276" y="244" type="line" smooth="yes"/>
      <point x="296" y="244"/>
      <point x="315" y="245"/>
      <point x="331" y="249" type="curve"/>
      <point x="418" y="0" type="line"/>
      <point x="474" y="0" type="line"/>
      <point x="382" y="264" type="line"/>
      <point x="444" y="294"/>
      <point x="474" y="359"/>
      <point x="474" y="472" type="curve" smooth="yes"/>
      <point x="474" y="643"/>
      <point x="403" y="698"/>
    </contour>
    <contour>
      <point x="281" y="299" type="curve" smooth="yes"/>
      <point x="97" y="299" type="line"/>
      <point x="97" y="645" type="line"/>
      <point x="281" y="645" type="line" smooth="yes"/>
      <point x="359" y="645"/>
      <point x="418" y="613"/>
      <point x="418" y="472" type="curve" smooth="yes"/>
      <point x="418" y="320"/>
      <point x="357" y="299"/>
    </contour>
  </outline>
</glyph>
<glyph name="dotlessj" format="1">
  <advance width="187"/>
  <unicode hex="0237"/>
  <outline>
    <contour>
      <point x="147" y="-63" type="curve" smooth="yes"/>
      <point x="147" y="499" type="line"/>
      <point x="28" y="499" type="line"/>
      <point x="28" y="447" type="line"/>
      <point x="91" y="447" type="line"/>
      <point x="91" y="-62" type="line" smooth="yes"/>
      <point x="91" y="-90"/>
      <point x="85" y="-113"/>
      <point x="72" y="-131" type="curve" smooth="yes"/>
      <point x="61" y="-146"/>
      <point x="46" y="-158"/>
      <point x="26" y="-166" type="curve"/>
      <point x="42" y="-209" type="line"/>
      <point x="75" y="-198"/>
      <point x="98" y="-185"/>
      <point x="116" y="-166" type="curve" smooth="yes"/>
      <point x="138" y="-141"/>
      <point x="147" y="-108"/>
    </contour>
  </outline>
</glyph>
<glyph name="gravecomb" format="1">
  <advance width="157"/>
  <unicode hex="0300"/>
  <outline>
    <contour>
      <point x="90" y="608" type="line"/>
      <point x="126" y="608" type="line"/>
      <point x="87" y="715" type="line"/>
      <point x="82" y="734"/>
      <point x="61" y="745"/>
      <point x="43" y="735" type="curve" smooth="yes"/>
      <point x="26" y="725"/>
      <point x="25" y="702"/>
      <point x="37" y="687" type="curve"/>
    </contour>
  </outline>
</glyph>
<glyph name="tildecomb" format="1">
  <advance width="320"/>
  <unicode hex="0303"/>
  <outline>
    <contour>
      <point x="289" y="647" type="curve"/>
      <point x="269" y="694" type="line"/>
      <point x="255" y="683"/>
      <point x="235" y="673"/>
      <point x="216" y="674" type="curve"/>
      <point x="203" y="674"/>
      <point x="156" y="700"/>
      <point x="108" y="700" type="curve" smooth="yes"/>
      <point x="81" y="700"/>
      <point x="53" y="692"/>
      <point x="30" y="668" type="curve"/>
      <point x="52" y="621" type="line"/>
      <point x="66" y="632"/>
      <point x="78" y="640"/>
      <point x="97" y="641" type="curve" smooth="yes"/>
      <point x="128" y="643"/>
      <point x="172" y="617"/>
      <point x="218" y="617" type="curve" smooth="yes"/>
      <point x="242" y="617"/>
      <point x="266" y="624"/>
    </contour>
  </outline>
</glyph>
<glyph name="dotaccentcomb" format="1">
  <advance width="126"/>
  <unicode hex="0307"/>
  <outline>
    <contour>
      <point x="62" y="748" type="curve" smooth="yes"/>
      <point x="43" y="748"/>
      <point x="29" y="733"/>
      <point x="29" y="714" type="curve" smooth="yes"/>
      <point x="29" y="696"/>
      <point x="43" y="681"/>
      <point x="62" y="681" type="curve" smooth="yes"/>
      <point x="80" y="681"/>
      <point x="95" y="696"/>
      <point x="95" y="714" type="curve" smooth="yes"/>
      <point x="95" y="733"/>
      <point x="80" y="748"/>
    </contour>
  </outline>
</glyph>
<glyph name="Upsilontonos" format="1">
  <advance width="564"/>
  <unicode hex="038E"/>
  <outline>
    <contour>
      <point x="524" y="155" type="curve" smooth="yes"/>
      <point x="524" y="698" type="line"/>
      <point x="468" y="698" type="line"/>
      <point x="468" y="422" type="line" smooth="yes"/>
      <point x="468" y="380"/>
      <point x="443" y="339"/>
      <point x="404" y="319" type="curve" smooth="yes"/>
      <point x="377" y="306"/>
      <point x="341" y="299"/>
      <point x="301" y="299" type="curve" smooth="yes"/>
      <point x="257" y="299"/>
      <point x="217" y="310"/>
      <point x="184" y="334" type="curve"/>
      <point x="152" y="360"/>
      <point x="138" y="395"/>
      <point x="138" y="451" type="curve" smooth="yes"/>
      <point x="138" y="698" type="line"/>
      <point x="82" y="698" type="line"/>
      <point x="82" y="462" type="line" smooth="yes"/>
      <point x="82" y="381"/>
      <point x="101" y="330"/>
      <point x="143" y="295" type="curve" smooth="yes"/>
      <point x="184" y="260"/>
      <point x="240" y="241"/>
      <point x="310" y="244" type="curve" smooth="yes"/>
      <point x="401" y="250"/>
      <point x="449" y="285"/>
      <point x="468" y="305" type="curve"/>
      <point x="468" y="152" type="line" smooth="yes"/>
      <point x="468" y="86"/>
      <point x="448" y="45"/>
      <point x="406" y="30" type="curve"/>
      <point x="419" y="-7" type="line"/>
      <point x="487" y="2"/>
      <point x="524" y="58"/>
    </contour>
    <contour>
      <point x="52" y="806" type="curve"/>
      <point x="13" y="698" type="line"/>
      <point x="49" y="698" type="line"/>
      <point x="103" y="778" type="line"/>
      <point x="115" y="793"/>
      <point x="114" y="816"/>
      <point x="96" y="826" type="curve" smooth="yes"/>
      <point x="78" y="836"/>
      <point x="57" y="825"/>
    </contour>
  </outline>
</glyph>
<glyph name="Mu" format="1">
  <advance width="619"/>
  <unicode hex="039C"/>
  <outline>
    <contour>
      <point x="97" y="698" type="line"/>
      <point x="41" y="698" type="line"/>
      <point x="41" y="0" type="line"/>
      <point x="97" y="0" type="line"/>
      <point x="97" y="533" type="line"/>
      <point x="277" y="0" type="line"/>
      <point x="338" y="0" type="line"/>
      <point x="520" y="533" type="line"/>
      <point x="520" y="0" type="line"/>
      <point x="576" y="0" type="line"/>
      <point x="576" y="698" type="line"/>
      <point x="520" y="698" type="line"/>
      <point x="307" y="86" type="line"/>
    </contour>
  </outline>
</glyph>
<glyph name="upsilon" format="1">
  <advance width="440"/>
  <unicode hex="03C5"/>
  <outline>
    <contour>
      <point x="404" y="184" type="curve" smooth="yes"/>
      <point x="404" y="499" type="line"/>
      <point x="350" y="499" type="line"/>
      <point x="350" y="174" type="line" smooth="yes"/>
      <point x="350" y="92"/>
      <point x="307" y="40"/>
      <point x="224" y="40" type="curve" smooth="yes"/>
      <point x="143" y="40"/>
      <point x="91" y="94"/>
      <point x="91" y="174" type="curve" smooth="yes"/>
      <point x="91" y="499" type="line"/>
      <point x="34" y="499" type="line"/>
      <point x="34" y="184" type="line" smooth="yes"/>
      <point x="34" y="75"/>
      <point x="98" y="-10"/>
      <point x="222" y="-10" type="curve" smooth="yes"/>
      <point x="346" y="-10"/>
      <point x="404" y="71"/>
    </contour>
  </outline>
</glyph>
<glyph name="ellipsis" format="1">
  <advance width="488"/>
  <unicode hex="2026"/>
  <outline>
    <contour>
      <point x="68" y="63" type="curve" smooth="yes"/>
      <point x="49" y="63"/>
      <point x="35" y="47"/>
      <point x="35" y="29" type="curve" smooth="yes"/>
      <point x="35" y="11"/>
      <point x="49" y="-4"/>
      <point x="68" y="-4" type="curve" smooth="yes"/>
      <point x="86" y="-4"/>
      <point x="101" y="11"/>
      <point x="101" y="29" type="curve" smooth="yes"/>
      <point x="101" y="47"/>
      <point x="86" y="63"/>
    </contour>
    <contour>
      <point x="243" y="63" type="curve" smooth="yes"/>
      <point x="224" y="63"/>
      <point x="209" y="47"/>
      <point x="209" y="29" type="curve" smooth="yes"/>
      <point x="209" y="11"/>
      <point x="224" y="-4"/>
      <point x="243" y="-4" type="curve" smooth="yes"/>
      <point x="260" y="-4"/>
      <point x="276" y="11"/>
      <point x="276" y="29" type="curve" smooth="yes"/>
      <point x="276" y="47"/>
      <point x="260" y="63"/>
    </contour>
    <contour>
      <point x="421" y="63" type="curve" smooth="yes"/>
      <point x="402" y="63"/>
      <point x="388" y="47"/>
      <point x="388" y="29" type="curve" smooth="yes"/>
      <point x="388" y="11"/>
      <point x="402" y="-4"/>
      <point x="421" y="-4" type="curve" smooth="yes"/>
      <point x="440" y="-4"/>
      <point x="454" y="11"/>
      <point x="454" y="29" type="curve" smooth="yes"/>
      <point x="454" y="47"/>
      <point x="440" y="63"/>
    </contour>
  </outline>
</glyph>
<glyph name="y_alt" format="1">
  <advance width="506"/>
  <unicode hex="9998"/>
  <outline>
    <contour>
      <point x="116" y="-210" type="line"/>
      <point x="174" y="-210" type="line"/>
      <point x="484" y="510" type="line"/>
      <point x="422" y="510" type="line"/>
      <point x="244" y="86" type="line"/>
      <point x="81" y="510" type="line"/>
      <point x="17" y="510" type="line"/>
      <point x="215" y="20" type="line"/>
    </contour>
  </outline>
</glyph>
<glyph name="caroncomb" format="1">
  <advance width="307"/>
  <outline>
    <contour>
      <point x="23" y="713" type="line"/>
      <point x="151" y="587" type="line"/>
      <point x="283" y="715" type="line"/>
      <point x="244" y="752" type="line"/>
      <point x="151" y="663" type="line"/>
      <point x="62" y="751" type="line"/>
    </contour>
  </outline>
</glyph>
<glyph name="commaturnedabovecomb" format="1">
  <advance width="107"/>
  <outline>
    <contour>
      <point x="87" y="716" type="curve"/>
      <point x="70" y="728" type="line"/>
      <point x="50" y="711"/>
      <point x="18" y="671"/>
      <point x="17" y="608" type="curve"/>
      <point x="18" y="588"/>
      <point x="32" y="575"/>
      <point x="51" y="575" type="curve" smooth="yes"/>
      <point x="70" y="575"/>
      <point x="84" y="590"/>
      <point x="84" y="608" type="curve" smooth="yes"/>
      <point x="84" y="625"/>
      <point x="72" y="638"/>
      <point x="57" y="641" type="curve"/>
      <point x="59" y="662"/>
      <point x="66" y="690"/>
    </contour>
  </outline>
</glyph>
